#!OML:ASF F:\VICON\USERDATA\INSTALL\rory3\rory3.ASF
:FULLY-SPECIFIED
:DEGREES
270
root 4.17585 16.8664 -5.82046 375.701 45.8998 -0.0277853
lowerback -6.90644 6.02339 0.78751
upperback -5.20347 8.13101 2.45952
thorax -1.79748 4.15555 2.5011
lowerneck 1.15583 -17.9527 -18.8264
upperneck 25.3848 -26.8491 13.1099
head 12.7216 -12.8244 4.12186
rclavicle 9.77275e-014 5.08889e-014
rhumerus -36.4219 9.48224 -91.6684
rradius 27.4109
rwrist 22.1901
rhand -17.5576 -34.9193
rfingers 7.12502
rthumb 188.697 115.28
lclavicle 9.77275e-014 5.08889e-014
lhumerus -75.4795 26.0991 9.09976
lradius 27.5995
lwrist 29.4138
lhand -40.3852 -747.301
lfingers 7.12502
lthumb -13.3391 2.25252
rfemur -41.4889 13.3731 6.97822
rtibia 44.6313
rfoot -20.147 -8.04041
rtoes -12.0886
lfemur -24.4861 -3.5459 -20.6789
ltibia 40.2599
lfoot -28.1109 19.1756
ltoes -4.4744
271
root 4.1683 16.8588 -5.80659 375.341 45.5898 -0.459411
lowerback -6.66205 6.12662 1.13908
upperback -5.10608 8.25849 2.71086
thorax -1.82519 4.21354 2.55118
lowerneck 1.54474 -18.0627 -18.6689
upperneck 24.9201 -27.023 13.2057
head 12.4814 -12.917 4.14146
rclavicle 8.13775e-015 -5.40694e-014
rhumerus -35.9563 9.43578 -90.9446
rradius 27.7895
rwrist 21.7729
rhand -15.9767 -34.4518
rfingers 7.12502
rthumb 190.223 115.817
lclavicle 8.13775e-015 -5.40694e-014
lhumerus -75.0761 25.7515 8.12963
lradius 28.0311
lwrist 30.3162
lhand -41.0133 -747.193
lfingers 7.12502
lthumb -13.9445 2.31918
rfemur -41.6208 12.6024 7.71727
rtibia 44.9149
rfoot -19.9256 -9.5395
rtoes -13.3946
lfemur -24.5292 -3.09028 -20.3692
ltibia 40.4428
lfoot -27.8894 19.651
ltoes -5.6489
272
root 4.16429 16.8526 -5.80052 375.224 45.292 -0.640662
lowerback -6.33067 6.15809 1.56082
upperback -5.07349 8.29226 2.83213
thorax -1.9346 4.21947 2.41217
lowerneck 1.51112 -18.0836 -18.6552
upperneck 24.925 -27.0444 13.1914
head 12.489 -12.923 4.12667
rclavicle -3.7943e-014 3.18055e-014
rhumerus -35.4347 9.48498 -90.3497
rradius 28.0311
rwrist 21.5747
rhand -14.9081 -33.6859
rfingers 7.12502
rthumb 191.253 116.636
lclavicle -3.7943e-014 3.18055e-014
lhumerus -74.8461 25.4055 6.79061
lradius 28.4038
lwrist 30.5701
lhand -41.4419 -746.169
lfingers 7.12502
lthumb -14.3574 3.31499
rfemur -41.8561 11.4077 8.28484
rtibia 45.3274
rfoot -20.0627 -10.3128
rtoes -11.9166
lfemur -24.5715 -2.57044 -20.2746
ltibia 40.5427
lfoot -27.8883 19.6549
ltoes -6.07155
273
root 4.16149 16.8507 -5.79627 375.262 45.0111 -0.640822
lowerback -5.9473 6.19455 2.01396
upperback -5.05964 8.33409 2.82353
thorax -2.06798 4.22451 2.11743
lowerneck 1.30158 -18.0933 -18.6667
upperneck 25.0501 -27.0607 13.2314
head 12.5923 -12.9098 4.11619
rclavicle -7.50412e-014 -1.59028e-014
rhumerus -34.8671 9.54105 -89.9143
rradius 28.1585
rwrist 21.3061
rhand -14.8747 -33.1108
rfingers 7.12502
rthumb 191.286 117.213
lclavicle -7.50412e-014 -1.59028e-014
lhumerus -74.3683 25.004 5.65921
lradius 28.6594
lwrist 30.906
lhand -41.4951 -745.663
lfingers 7.12502
lthumb -14.4087 3.81732
rfemur -42.104 10.1666 8.77385
rtibia 45.8145
rfoot -20.2744 -11.3727
rtoes -10.1947
lfemur -24.6122 -2.17196 -20.3291
ltibia 40.6145
lfoot -28.0051 19.61
ltoes -6.08202
274
root 4.14882 16.8407 -5.7693 375.406 44.7061 -0.588257
lowerback -5.98161 6.18173 1.88725
upperback -4.91088 8.31631 3.00896
thorax -1.93984 4.22267 2.38725
lowerneck 1.17495 -18.146 -18.4665
upperneck 24.8144 -27.087 13.1978
head 12.4847 -12.9086 4.06473
rclavicle -1.56344e-013 -1.27222e-014
rhumerus -34.1913 10.0887 -89.4221
rradius 28.4133
rwrist 20.6148
rhand -15.0631 -33.032
rfingers 7.12502
rthumb 191.104 117.282
lclavicle -1.56344e-013 -1.27222e-014
lhumerus -73.8696 24.6628 4.72786
lradius 28.956
lwrist 31.4529
lhand -41.4637 -745.638
lfingers 7.12502
lthumb -14.3785 3.84449
rfemur -42.4439 9.69137 8.98204
rtibia 46.3596
rfoot -20.5032 -13.0701
rtoes -8.65013
lfemur -24.71 -1.90242 -20.3356
ltibia 40.6437
lfoot -28.0458 19.7545
ltoes -6.02621
